<mxfile host="Electron" agent="Mozilla/5.0 (X11; Linux x86_64) AppleWebKit/537.36 (KHTML, like Gecko) draw.io/26.2.15 Chrome/134.0.6998.205 Electron/35.2.1 Safari/537.36" version="26.2.15">
  <diagram name="PÃ¡gina-1" id="tbhhrolYnf2YLyF_AGn1">
    <mxGraphModel dx="2037" dy="1250" grid="1" gridSize="10" guides="1" tooltips="1" connect="1" arrows="1" fold="1" page="1" pageScale="1" pageWidth="827" pageHeight="1169" math="0" shadow="0">
      <root>
        <mxCell id="0" />
        <mxCell id="1" parent="0" />
        <mxCell id="gUQwB867zqCJYkILIy9S-1" value="COB003 -&amp;nbsp;FINAL SALARY CALCULATION WITH TAX RULE" style="text;html=1;align=left;verticalAlign=middle;whiteSpace=wrap;rounded=0;fontStyle=1" parent="1" vertex="1">
          <mxGeometry x="40" y="40" width="760" height="30" as="geometry" />
        </mxCell>
        <mxCell id="hJ2BFbXUZGXYHwbM8L2G-37" style="edgeStyle=orthogonalEdgeStyle;rounded=0;orthogonalLoop=1;jettySize=auto;html=1;exitX=0.5;exitY=1;exitDx=0;exitDy=0;exitPerimeter=0;entryX=0.5;entryY=0;entryDx=0;entryDy=0;" parent="1" source="gUQwB867zqCJYkILIy9S-3" target="hJ2BFbXUZGXYHwbM8L2G-29" edge="1">
          <mxGeometry relative="1" as="geometry" />
        </mxCell>
        <mxCell id="gUQwB867zqCJYkILIy9S-3" value="Start" style="strokeWidth=2;html=1;shape=mxgraph.flowchart.terminator;whiteSpace=wrap;" parent="1" vertex="1">
          <mxGeometry x="111.25" y="80" width="100" height="60" as="geometry" />
        </mxCell>
        <mxCell id="0eGiHp5goSOmYRr4eiXb-60" value="Stop" style="strokeWidth=2;html=1;shape=mxgraph.flowchart.terminator;whiteSpace=wrap;" parent="1" vertex="1">
          <mxGeometry x="111.25000000000011" y="970" width="100" height="60" as="geometry" />
        </mxCell>
        <mxCell id="j2bhDhVvGxlD0YQlKYla-2" style="edgeStyle=orthogonalEdgeStyle;rounded=0;orthogonalLoop=1;jettySize=auto;html=1;exitX=0.5;exitY=1;exitDx=0;exitDy=0;entryX=0.5;entryY=0;entryDx=0;entryDy=0;" edge="1" parent="1" source="hJ2BFbXUZGXYHwbM8L2G-29" target="j2bhDhVvGxlD0YQlKYla-1">
          <mxGeometry relative="1" as="geometry" />
        </mxCell>
        <mxCell id="hJ2BFbXUZGXYHwbM8L2G-29" value="&lt;div&gt;&lt;span style=&quot;background-color: transparent; color: light-dark(rgb(0, 0, 0), rgb(255, 255, 255));&quot;&gt;&lt;br&gt;&lt;/span&gt;&lt;/div&gt;&lt;div&gt;&lt;span style=&quot;background-color: transparent; color: light-dark(rgb(0, 0, 0), rgb(255, 255, 255));&quot;&gt;WS-SAL-BRUTO&lt;/span&gt;&lt;/div&gt;&lt;div&gt;&lt;div&gt;WS-IR&lt;/div&gt;&lt;div&gt;WS-SAL-LIQ&lt;/div&gt;&lt;div&gt;&lt;br&gt;&lt;/div&gt;&lt;div&gt;WS-SAL-BRUTO&lt;span style=&quot;background-color: transparent; color: light-dark(rgb(0, 0, 0), rgb(255, 255, 255));&quot;&gt;-EDIT&lt;/span&gt;&lt;/div&gt;&lt;div&gt;WS-IR&lt;span style=&quot;background-color: transparent; color: light-dark(rgb(0, 0, 0), rgb(255, 255, 255));&quot;&gt;-EDIT&lt;/span&gt;&lt;/div&gt;&lt;div&gt;WS-SAL-LIQ&lt;span style=&quot;background-color: transparent; color: light-dark(rgb(0, 0, 0), rgb(255, 255, 255));&quot;&gt;-EDIT&lt;/span&gt;&lt;/div&gt;&lt;/div&gt;" style="shape=internalStorage;whiteSpace=wrap;html=1;dx=15;dy=15;rounded=1;arcSize=8;strokeWidth=2;" parent="1" vertex="1">
          <mxGeometry x="78.75" y="180" width="165" height="120" as="geometry" />
        </mxCell>
        <mxCell id="j2bhDhVvGxlD0YQlKYla-1" value="&lt;div&gt;&lt;br&gt;&lt;/div&gt;WS-SAL-BRUTO" style="html=1;strokeWidth=2;shape=manualInput;whiteSpace=wrap;rounded=1;size=26;arcSize=11;" vertex="1" parent="1">
          <mxGeometry x="111.25" y="330" width="100" height="60" as="geometry" />
        </mxCell>
        <mxCell id="j2bhDhVvGxlD0YQlKYla-8" style="edgeStyle=orthogonalEdgeStyle;rounded=0;orthogonalLoop=1;jettySize=auto;html=1;exitX=1;exitY=0.5;exitDx=0;exitDy=0;exitPerimeter=0;entryX=0;entryY=0.5;entryDx=0;entryDy=0;" edge="1" parent="1" source="j2bhDhVvGxlD0YQlKYla-3" target="j2bhDhVvGxlD0YQlKYla-6">
          <mxGeometry relative="1" as="geometry" />
        </mxCell>
        <mxCell id="j2bhDhVvGxlD0YQlKYla-10" value="Yes" style="edgeLabel;html=1;align=center;verticalAlign=middle;resizable=0;points=[];" vertex="1" connectable="0" parent="j2bhDhVvGxlD0YQlKYla-8">
          <mxGeometry x="-0.2494" y="-1" relative="1" as="geometry">
            <mxPoint as="offset" />
          </mxGeometry>
        </mxCell>
        <mxCell id="j2bhDhVvGxlD0YQlKYla-9" style="edgeStyle=orthogonalEdgeStyle;rounded=0;orthogonalLoop=1;jettySize=auto;html=1;exitX=0.5;exitY=1;exitDx=0;exitDy=0;exitPerimeter=0;entryX=0.5;entryY=0;entryDx=0;entryDy=0;" edge="1" parent="1" source="j2bhDhVvGxlD0YQlKYla-3" target="j2bhDhVvGxlD0YQlKYla-7">
          <mxGeometry relative="1" as="geometry" />
        </mxCell>
        <mxCell id="j2bhDhVvGxlD0YQlKYla-11" value="No" style="edgeLabel;html=1;align=center;verticalAlign=middle;resizable=0;points=[];" vertex="1" connectable="0" parent="j2bhDhVvGxlD0YQlKYla-9">
          <mxGeometry x="-0.1444" y="1" relative="1" as="geometry">
            <mxPoint as="offset" />
          </mxGeometry>
        </mxCell>
        <mxCell id="j2bhDhVvGxlD0YQlKYla-3" value="&lt;div&gt;&lt;span style=&quot;background-color: transparent; color: light-dark(rgb(0, 0, 0), rgb(255, 255, 255));&quot;&gt;WS-SAL-BRUTO&lt;/span&gt;&lt;/div&gt;&lt;div&gt;&lt;span style=&quot;background-color: transparent; color: light-dark(rgb(0, 0, 0), rgb(255, 255, 255));&quot;&gt;&amp;gt;= 1000&lt;/span&gt;&lt;/div&gt;" style="strokeWidth=2;html=1;shape=mxgraph.flowchart.decision;whiteSpace=wrap;" vertex="1" parent="1">
          <mxGeometry x="101.25" y="420" width="120" height="120" as="geometry" />
        </mxCell>
        <mxCell id="j2bhDhVvGxlD0YQlKYla-5" style="edgeStyle=orthogonalEdgeStyle;rounded=0;orthogonalLoop=1;jettySize=auto;html=1;exitX=0.5;exitY=1;exitDx=0;exitDy=0;entryX=0.496;entryY=-0.031;entryDx=0;entryDy=0;entryPerimeter=0;" edge="1" parent="1" source="j2bhDhVvGxlD0YQlKYla-1" target="j2bhDhVvGxlD0YQlKYla-3">
          <mxGeometry relative="1" as="geometry" />
        </mxCell>
        <mxCell id="j2bhDhVvGxlD0YQlKYla-6" value="WS-IR =&amp;nbsp;&lt;span style=&quot;background-color: transparent; color: light-dark(rgb(0, 0, 0), rgb(255, 255, 255));&quot;&gt;WS-SAL-BRUTO * 0,15&lt;/span&gt;" style="rounded=1;whiteSpace=wrap;html=1;absoluteArcSize=1;arcSize=14;strokeWidth=2;" vertex="1" parent="1">
          <mxGeometry x="261.25" y="460" width="190" height="40" as="geometry" />
        </mxCell>
        <mxCell id="j2bhDhVvGxlD0YQlKYla-7" value="WS-IR =&amp;nbsp;&lt;span style=&quot;background-color: transparent; color: light-dark(rgb(0, 0, 0), rgb(255, 255, 255));&quot;&gt;WS-SAL-BRUTO * 0,10&lt;/span&gt;" style="rounded=1;whiteSpace=wrap;html=1;absoluteArcSize=1;arcSize=14;strokeWidth=2;" vertex="1" parent="1">
          <mxGeometry x="66.25" y="570" width="190" height="40" as="geometry" />
        </mxCell>
        <mxCell id="j2bhDhVvGxlD0YQlKYla-18" style="edgeStyle=orthogonalEdgeStyle;rounded=0;orthogonalLoop=1;jettySize=auto;html=1;exitX=0.5;exitY=1;exitDx=0;exitDy=0;exitPerimeter=0;entryX=0.5;entryY=0;entryDx=0;entryDy=0;" edge="1" parent="1" source="j2bhDhVvGxlD0YQlKYla-12" target="j2bhDhVvGxlD0YQlKYla-17">
          <mxGeometry relative="1" as="geometry" />
        </mxCell>
        <mxCell id="j2bhDhVvGxlD0YQlKYla-12" value="" style="verticalLabelPosition=bottom;verticalAlign=top;html=1;shape=mxgraph.flowchart.on-page_reference;" vertex="1" parent="1">
          <mxGeometry x="141.25" y="640" width="40" height="40" as="geometry" />
        </mxCell>
        <mxCell id="j2bhDhVvGxlD0YQlKYla-15" style="edgeStyle=orthogonalEdgeStyle;rounded=0;orthogonalLoop=1;jettySize=auto;html=1;exitX=0.5;exitY=1;exitDx=0;exitDy=0;entryX=0.5;entryY=0;entryDx=0;entryDy=0;entryPerimeter=0;" edge="1" parent="1" source="j2bhDhVvGxlD0YQlKYla-7" target="j2bhDhVvGxlD0YQlKYla-12">
          <mxGeometry relative="1" as="geometry" />
        </mxCell>
        <mxCell id="j2bhDhVvGxlD0YQlKYla-16" style="edgeStyle=orthogonalEdgeStyle;rounded=0;orthogonalLoop=1;jettySize=auto;html=1;exitX=0.5;exitY=1;exitDx=0;exitDy=0;entryX=1;entryY=0.5;entryDx=0;entryDy=0;entryPerimeter=0;" edge="1" parent="1" source="j2bhDhVvGxlD0YQlKYla-6" target="j2bhDhVvGxlD0YQlKYla-12">
          <mxGeometry relative="1" as="geometry" />
        </mxCell>
        <mxCell id="j2bhDhVvGxlD0YQlKYla-21" style="edgeStyle=orthogonalEdgeStyle;rounded=0;orthogonalLoop=1;jettySize=auto;html=1;exitX=0.5;exitY=1;exitDx=0;exitDy=0;entryX=0.5;entryY=0;entryDx=0;entryDy=0;" edge="1" parent="1" source="j2bhDhVvGxlD0YQlKYla-17" target="j2bhDhVvGxlD0YQlKYla-20">
          <mxGeometry relative="1" as="geometry" />
        </mxCell>
        <mxCell id="j2bhDhVvGxlD0YQlKYla-17" value="WS-SAL-LIQ =&amp;nbsp;&lt;span style=&quot;background-color: transparent; color: light-dark(rgb(0, 0, 0), rgb(255, 255, 255));&quot;&gt;WS-SAL-BRUTO -&amp;nbsp;&lt;/span&gt;WS-IR" style="rounded=1;whiteSpace=wrap;html=1;absoluteArcSize=1;arcSize=14;strokeWidth=2;" vertex="1" parent="1">
          <mxGeometry x="66.25" y="710" width="190" height="40" as="geometry" />
        </mxCell>
        <mxCell id="j2bhDhVvGxlD0YQlKYla-19" value="&lt;div&gt;WS-SAL-BRUTO&lt;span style=&quot;background-color: transparent; color: light-dark(rgb(0, 0, 0), rgb(255, 255, 255));&quot;&gt;-EDIT&lt;/span&gt;&lt;/div&gt;&lt;div&gt;WS-IR&lt;span style=&quot;background-color: transparent; color: light-dark(rgb(0, 0, 0), rgb(255, 255, 255));&quot;&gt;-EDIT&lt;/span&gt;&lt;/div&gt;&lt;div&gt;WS-SAL-LIQ&lt;span style=&quot;background-color: transparent; color: light-dark(rgb(0, 0, 0), rgb(255, 255, 255));&quot;&gt;-EDIT&lt;/span&gt;&lt;/div&gt;" style="strokeWidth=2;html=1;shape=mxgraph.flowchart.display;whiteSpace=wrap;" vertex="1" parent="1">
          <mxGeometry x="91.25" y="860" width="140" height="80" as="geometry" />
        </mxCell>
        <mxCell id="j2bhDhVvGxlD0YQlKYla-20" value="&lt;span style=&quot;background-color: transparent; color: light-dark(rgb(0, 0, 0), rgb(255, 255, 255));&quot;&gt;WS-SAL-BRUTO-EDIT =&amp;nbsp;&lt;/span&gt;WS-SAL-BRUTO&lt;div&gt;WS-IR&lt;span style=&quot;background-color: transparent; color: light-dark(rgb(0, 0, 0), rgb(255, 255, 255));&quot;&gt;-EDIT&lt;/span&gt;&lt;span style=&quot;background-color: transparent; color: light-dark(rgb(0, 0, 0), rgb(255, 255, 255));&quot;&gt;&amp;nbsp;=&amp;nbsp;&lt;/span&gt;&lt;span style=&quot;background-color: transparent; color: light-dark(rgb(0, 0, 0), rgb(255, 255, 255));&quot;&gt;WS-IR&lt;/span&gt;&lt;/div&gt;&lt;div&gt;WS-SAL-LIQ&lt;span style=&quot;background-color: transparent; color: light-dark(rgb(0, 0, 0), rgb(255, 255, 255));&quot;&gt;-EDIT&lt;/span&gt;&lt;span style=&quot;background-color: transparent; color: light-dark(rgb(0, 0, 0), rgb(255, 255, 255));&quot;&gt;&amp;nbsp;=&amp;nbsp;&lt;/span&gt;&lt;span style=&quot;background-color: transparent; color: light-dark(rgb(0, 0, 0), rgb(255, 255, 255));&quot;&gt;WS-SAL-LIQ&lt;/span&gt;&lt;/div&gt;" style="rounded=1;whiteSpace=wrap;html=1;absoluteArcSize=1;arcSize=14;strokeWidth=2;" vertex="1" parent="1">
          <mxGeometry x="40" y="780" width="242.5" height="50" as="geometry" />
        </mxCell>
        <mxCell id="j2bhDhVvGxlD0YQlKYla-22" style="edgeStyle=orthogonalEdgeStyle;rounded=0;orthogonalLoop=1;jettySize=auto;html=1;exitX=0.5;exitY=1;exitDx=0;exitDy=0;entryX=0.5;entryY=0;entryDx=0;entryDy=0;entryPerimeter=0;" edge="1" parent="1" source="j2bhDhVvGxlD0YQlKYla-20" target="j2bhDhVvGxlD0YQlKYla-19">
          <mxGeometry relative="1" as="geometry" />
        </mxCell>
        <mxCell id="j2bhDhVvGxlD0YQlKYla-23" style="edgeStyle=orthogonalEdgeStyle;rounded=0;orthogonalLoop=1;jettySize=auto;html=1;exitX=0.5;exitY=1;exitDx=0;exitDy=0;exitPerimeter=0;entryX=0.5;entryY=0;entryDx=0;entryDy=0;entryPerimeter=0;" edge="1" parent="1" source="j2bhDhVvGxlD0YQlKYla-19" target="0eGiHp5goSOmYRr4eiXb-60">
          <mxGeometry relative="1" as="geometry" />
        </mxCell>
      </root>
    </mxGraphModel>
  </diagram>
</mxfile>
